<svg xmlns="http://www.w3.org/2000/svg" width="1200" height="720" viewBox="0 0 1200 720" role="img" aria-labelledby="title desc">
  <title id="title">Illustrative Gery Robot Assistant interface</title>
  <desc id="desc">Fictional chat interface showing a cited troubleshooting procedure with step-by-step response choices. No internal documents or live data are shown.</desc>
  <defs>
    <linearGradient id="back" x1="0" y1="0" x2="1200" y2="720" gradientUnits="userSpaceOnUse"><stop stop-color="#0B1520"/><stop offset="1" stop-color="#172B35"/></linearGradient>
    <linearGradient id="panel" x1="305" y1="115" x2="1042" y2="655" gradientUnits="userSpaceOnUse"><stop stop-color="#203844"/><stop offset="1" stop-color="#142832"/></linearGradient>
    <linearGradient id="mint" x1="0" y1="0" x2="1" y2="1"><stop stop-color="#B1EDD8"/><stop offset="1" stop-color="#6DCEC4"/></linearGradient>
    <filter id="shadow" x="-20%" y="-20%" width="140%" height="160%"><feDropShadow dx="0" dy="18" stdDeviation="21" flood-color="#010A12" flood-opacity=".44"/></filter>
    <pattern id="dots" width="30" height="30" patternUnits="userSpaceOnUse"><circle cx="2" cy="2" r="1" fill="#9EDBD0" opacity=".11"/></pattern>
  </defs>
  <rect width="1200" height="720" fill="url(#back)"/>
  <rect width="1200" height="720" fill="url(#dots)"/>
  <circle cx="1050" cy="82" r="235" fill="#3C827E" opacity=".12"/>
  <circle cx="146" cy="657" r="225" fill="#295C73" opacity=".16"/>
  <g filter="url(#shadow)">
    <rect x="60" y="48" width="1080" height="624" rx="19" fill="#13242E" stroke="#405C64" stroke-width="1.4"/>
    <path d="M79 48H1121C1131 48 1140 57 1140 67V100H60V67C60 57 69 48 79 48Z" fill="#1A303B"/>
  </g>
  <circle cx="87" cy="74" r="5" fill="#D89189"/><circle cx="106" cy="74" r="5" fill="#D8BE8B"/><circle cx="125" cy="74" r="5" fill="#8BC5AF"/>
  <text x="600" y="80" text-anchor="middle" fill="#A4BFBD" font-family="Arial, sans-serif" font-size="10" font-weight="700" letter-spacing="2">GERY ROBOT ASSISTANT / KNOWLEDGE WORKSPACE</text>
  <path d="M60 100H302V672H79C68 672 60 664 60 653V100Z" fill="#142A34"/>
  <line x1="302" y1="100" x2="302" y2="672" stroke="#3B5960"/>
  <rect x="88" y="128" width="42" height="42" rx="12" fill="url(#mint)"/>
  <rect x="99" y="139" width="20" height="17" rx="5" fill="none" stroke="#183D43" stroke-width="2"/>
  <circle cx="105" cy="147" r="1.7" fill="#183D43"/><circle cx="113" cy="147" r="1.7" fill="#183D43"/>
  <path d="M104 160H114M109 156V160" stroke="#183D43" stroke-width="2" stroke-linecap="round"/>
  <text x="144" y="147" fill="#ECF8F2" font-family="Arial, sans-serif" font-size="20" font-weight="700">Gery</text>
  <text x="145" y="165" fill="#8FAFAF" font-family="Arial, sans-serif" font-size="10" letter-spacing="1.5">ROBOT ASSISTANT</text>
  <text x="89" y="224" fill="#78A6A9" font-family="Arial, sans-serif" font-size="10" font-weight="700" letter-spacing="2">WORKSPACE</text>
  <rect x="78" y="244" width="207" height="42" rx="8" fill="#28515A"/>
  <rect x="78" y="244" width="4" height="42" rx="2" fill="#8CE3CB"/>
  <path d="M95 259H110V270H101L96 274V270H95Z" fill="none" stroke="#B9EBDB" stroke-width="1.6" stroke-linejoin="round"/>
  <text x="122" y="270" fill="#E5F8EE" font-family="Arial, sans-serif" font-size="13" font-weight="700">Ask Gery</text>
  <path d="M96 316H109M96 322H109M96 328H104" stroke="#86A5A8" stroke-width="1.7" stroke-linecap="round"/>
  <text x="122" y="327" fill="#9EB6B7" font-family="Arial, sans-serif" font-size="12">Knowledge library</text>
  <path d="M96 373H110M99 368V378M106 368V378" stroke="#86A5A8" stroke-width="1.5" stroke-linecap="round"/>
  <text x="122" y="379" fill="#9EB6B7" font-family="Arial, sans-serif" font-size="12">Guided procedures</text>
  <line x1="88" y1="581" x2="274" y2="581" stroke="#39545D"/>
  <circle cx="99" cy="610" r="5" fill="#8DE0BC"/>
  <text x="113" y="614" fill="#9DB8B5" font-family="Arial, sans-serif" font-size="11">Local answers available</text>
  <text x="88" y="640" fill="#6D9195" font-family="Arial, sans-serif" font-size="9" letter-spacing="1.2">ILLUSTRATIVE PREVIEW</text>
  <rect x="302" y="100" width="838" height="572" fill="url(#panel)"/>
  <text x="341" y="149" fill="#90C7B8" font-family="Arial, sans-serif" font-size="10" font-weight="700" letter-spacing="1.9">SUPPORT KNOWLEDGE / CHAT</text>
  <text x="341" y="189" fill="#EEF9F3" font-family="Arial, sans-serif" font-size="29" font-weight="700">Find the next step.</text>
  <text x="342" y="211" fill="#99B9B6" font-family="Arial, sans-serif" font-size="12">Answers stay linked to the approved procedure.</text>
  <rect x="923" y="152" width="176" height="28" rx="14" fill="#2A5155" stroke="#54867F"/>
  <circle cx="939" cy="166" r="4" fill="#93E1BD"/>
  <text x="952" y="170" fill="#C4E9D8" font-family="Arial, sans-serif" font-size="10" font-weight="700">LOCAL MATCH · NO AI CALL</text>
  <rect x="340" y="241" width="584" height="363" rx="14" fill="#142A35" stroke="#41616A"/>
  <rect x="362" y="262" width="286" height="48" rx="10" fill="#2B4D59"/>
  <text x="379" y="282" fill="#AFCCCA" font-family="Arial, sans-serif" font-size="10" font-weight="700" letter-spacing="1">YOU ASKED</text>
  <text x="379" y="299" fill="#E6F3EF" font-family="Arial, sans-serif" font-size="12">The demo printer is not connecting.</text>
  <rect x="362" y="330" width="538" height="219" rx="11" fill="#1F3A45" stroke="#507379"/>
  <rect x="379" y="348" width="31" height="31" rx="8" fill="url(#mint)"/>
  <text x="394" y="369" text-anchor="middle" fill="#183D43" font-family="Arial, sans-serif" font-size="17" font-weight="700">G</text>
  <text x="422" y="360" fill="#E5F6EF" font-family="Arial, sans-serif" font-size="13" font-weight="700">Gery found a guided procedure</text>
  <text x="422" y="378" fill="#9DC5BD" font-family="Arial, sans-serif" font-size="10">Fictional source: Demo printer checklist</text>
  <line x1="380" y1="396" x2="880" y2="396" stroke="#496A70"/>
  <text x="380" y="422" fill="#8CDCBF" font-family="Arial, sans-serif" font-size="10" font-weight="700" letter-spacing="1.2">CHECK 01 / 03</text>
  <text x="380" y="448" fill="#EAF6F1" font-family="Arial, sans-serif" font-size="17" font-weight="700">Is the printer powered on?</text>
  <text x="380" y="470" fill="#ABC8C3" font-family="Arial, sans-serif" font-size="12">Complete this check before moving to the next one.</text>
  <rect x="380" y="493" width="106" height="36" rx="7" fill="url(#mint)"/>
  <text x="433" y="516" text-anchor="middle" fill="#194149" font-family="Arial, sans-serif" font-size="11" font-weight="700">Resolved</text>
  <rect x="497" y="493" width="140" height="36" rx="7" fill="#2A505A" stroke="#62888A"/>
  <text x="567" y="516" text-anchor="middle" fill="#DBF2E9" font-family="Arial, sans-serif" font-size="11" font-weight="700">Still need help</text>
  <text x="655" y="516" fill="#9FCAC0" font-family="Arial, sans-serif" font-size="11" text-decoration="underline">Show full SOP</text>
  <rect x="341" y="620" width="583" height="34" rx="8" fill="#19313C" stroke="#3F6168"/>
  <text x="361" y="642" fill="#799CA2" font-family="Arial, sans-serif" font-size="11">Ask about a procedure or troubleshoot an issue...</text>
  <circle cx="901" cy="637" r="10" fill="#7ED6C5"/>
  <path d="M898 634L904 637L898 640" fill="none" stroke="#1C4750" stroke-width="1.6" stroke-linecap="round" stroke-linejoin="round"/>
  <rect x="947" y="241" width="152" height="363" rx="12" fill="#19323C" stroke="#42646A"/>
  <text x="963" y="269" fill="#8DBCB7" font-family="Arial, sans-serif" font-size="10" font-weight="700" letter-spacing="1.1">HOW IT WORKS</text>
  <circle cx="970" cy="304" r="12" fill="#315B5D"/><text x="970" y="308" text-anchor="middle" fill="#D4F0E3" font-family="Arial, sans-serif" font-size="10" font-weight="700">1</text>
  <text x="991" y="300" fill="#DFEFE9" font-family="Arial, sans-serif" font-size="11" font-weight="700">Approved</text>
  <text x="991" y="316" fill="#A7C3BE" font-family="Arial, sans-serif" font-size="10">documents</text>
  <line x1="970" y1="317" x2="970" y2="361" stroke="#567B79" stroke-width="1.4"/>
  <circle cx="970" cy="374" r="12" fill="#315B5D"/><text x="970" y="378" text-anchor="middle" fill="#D4F0E3" font-family="Arial, sans-serif" font-size="10" font-weight="700">2</text>
  <text x="991" y="370" fill="#DFEFE9" font-family="Arial, sans-serif" font-size="11" font-weight="700">Local</text>
  <text x="991" y="386" fill="#A7C3BE" font-family="Arial, sans-serif" font-size="10">matching</text>
  <line x1="970" y1="387" x2="970" y2="431" stroke="#567B79" stroke-width="1.4"/>
  <circle cx="970" cy="444" r="12" fill="#315B5D"/><text x="970" y="448" text-anchor="middle" fill="#D4F0E3" font-family="Arial, sans-serif" font-size="10" font-weight="700">3</text>
  <text x="991" y="440" fill="#DFEFE9" font-family="Arial, sans-serif" font-size="11" font-weight="700">Guided</text>
  <text x="991" y="456" fill="#A7C3BE" font-family="Arial, sans-serif" font-size="10">checks</text>
  <line x1="962" y1="488" x2="1084" y2="488" stroke="#42646A"/>
  <text x="962" y="512" fill="#8CB8AF" font-family="Arial, sans-serif" font-size="9" font-weight="700" letter-spacing="1">OPTIONAL MODEL</text>
  <text x="962" y="532" fill="#CDE7DD" font-family="Arial, sans-serif" font-size="11">Disabled by default</text>
  <text x="962" y="554" fill="#83A7A5" font-family="Arial, sans-serif" font-size="9">Fictional SOP shown</text>
</svg>
